<?xml version="1.0" standalone="no"?>
<!DOCTYPE svg PUBLIC "-//W3C//DTD SVG 20010904//EN"
 "http://www.w3.org/TR/2001/REC-SVG-20010904/DTD/svg10.dtd">
<svg version="1.0" xmlns="http://www.w3.org/2000/svg"
 width="1100.000000pt" height="1100.000000pt" viewBox="0 0 1100.000000 1100.000000"
 preserveAspectRatio="xMidYMid meet">
<metadata>
Created by potrace 1.11, written by Peter Selinger 2001-2013
</metadata>
<g transform="translate(0.000000,1100.000000) scale(0.100000,-0.100000)"
fill="#000000" stroke="none">
<path d="M5597 10803 c-1 0 -67 -4 -146 -8 -79 -3 -158 -8 -175 -10 -17 -2
-58 -7 -91 -10 -33 -4 -73 -8 -90 -10 -16 -2 -59 -9 -95 -15 -36 -6 -74 -13
-85 -15 -11 -1 -40 -8 -65 -15 -25 -7 -52 -13 -60 -15 -8 -2 -51 -13 -95 -24
-44 -12 -84 -23 -90 -24 -5 -2 -14 -5 -20 -8 -5 -4 -23 -10 -40 -14 -44 -12
-45 -12 -50 -15 -3 -1 -8 -3 -12 -5 -5 -1 -16 -5 -25 -9 -9 -4 -22 -9 -30 -10
-12 -3 -22 -6 -65 -23 -10 -3 -20 -7 -23 -8 -3 -1 -22 -9 -44 -18 -21 -9 -40
-17 -42 -17 -23 0 -419 -200 -434 -220 -3 -4 -12 -9 -21 -12 -45 -17 -345
-233 -430 -310 -10 -10 -21 -18 -24 -18 -4 0 -67 -56 -141 -126 -18 -17 -36
-29 -39 -26 -3 3 -5 0 -5 -6 0 -14 -59 -72 -73 -72 -6 0 -8 -2 -5 -5 2 -3 -27
-38 -66 -78 -74 -76 -146 -156 -146 -162 0 -3 -46 -59 -72 -86 -10 -11 -15
-19 -11 -19 4 0 -2 -9 -13 -20 -24 -24 -31 -33 -79 -105 -22 -33 -44 -63 -48
-66 -5 -3 -7 -8 -5 -11 1 -3 -5 -16 -15 -29 -23 -31 -56 -87 -103 -174 -20
-38 -41 -73 -46 -76 -5 -3 -9 -10 -9 -15 1 -17 -10 -44 -20 -44 -5 0 -8 -3 -8
-7 2 -12 -33 -93 -40 -93 -4 0 -7 -10 -8 -21 -1 -12 -9 -29 -17 -38 -9 -10
-13 -21 -9 -25 4 -4 2 -10 -4 -14 -7 -4 -14 -20 -17 -36 -3 -16 -9 -32 -14
-35 -5 -3 -8 -14 -6 -23 1 -10 -3 -18 -9 -18 -5 0 -7 -3 -4 -7 4 -3 2 -12 -4
-20 -6 -7 -9 -13 -6 -13 4 0 -2 -20 -13 -45 -11 -25 -17 -45 -15 -45 2 0 -2
-18 -10 -39 -7 -22 -11 -42 -8 -45 4 -3 1 -6 -6 -6 -7 0 -10 -4 -7 -8 3 -5 -2
-27 -10 -51 -8 -23 -12 -47 -9 -52 4 -5 1 -9 -5 -9 -7 0 -10 -7 -7 -15 4 -8 2
-17 -4 -21 -6 -3 -8 -12 -5 -19 2 -7 -1 -18 -7 -24 -6 -6 -8 -11 -4 -11 3 0 2
-11 -3 -25 -5 -14 -12 -36 -14 -48 -2 -12 -16 -67 -31 -122 -16 -55 -28 -106
-28 -112 0 -7 -3 -13 -6 -13 -4 0 -8 -12 -9 -26 -2 -28 -29 -70 -79 -124 -18
-19 -33 -40 -33 -47 0 -7 -4 -13 -10 -13 -5 0 -10 -6 -10 -14 0 -7 -7 -19 -15
-26 -9 -7 -22 -27 -31 -45 -8 -18 -23 -41 -32 -52 -18 -20 -37 -50 -60 -95 -7
-16 -18 -28 -23 -28 -6 0 -8 -4 -4 -9 3 -5 0 -16 -7 -23 -27 -29 -144 -247
-140 -260 1 -5 -3 -8 -8 -8 -5 0 -9 -3 -8 -7 1 -5 -4 -21 -10 -36 -7 -16 -12
-33 -12 -38 0 -5 -5 -9 -12 -9 -6 0 -8 -3 -5 -6 3 -4 1 -16 -5 -28 -7 -11 -13
-24 -14 -28 -1 -5 -3 -11 -4 -15 -1 -5 -2 -11 -1 -15 0 -5 -4 -8 -11 -8 -6 0
-9 -3 -6 -6 9 -8 -20 -72 -48 -110 -14 -18 -40 -43 -59 -56 -19 -12 -35 -28
-35 -35 0 -6 -3 -13 -8 -15 -14 -6 -102 -128 -102 -142 0 -8 -4 -16 -10 -18
-13 -4 -50 -110 -50 -141 0 -23 -14 -46 -71 -119 -22 -28 -68 -127 -76 -163
-1 -5 -4 -21 -8 -35 -5 -24 -10 -51 -20 -107 -6 -39 -15 -124 -21 -213 -3 -41
-7 -102 -10 -135 -3 -33 -5 -67 -4 -75 0 -8 0 -31 -1 -50 0 -19 0 -39 0 -45 1
-5 2 -45 4 -87 1 -43 4 -78 7 -78 3 0 5 -34 5 -75 0 -41 4 -75 9 -75 5 0 3 -6
-3 -13 -6 -8 -8 -17 -4 -21 4 -4 9 -33 11 -64 5 -89 6 -92 15 -92 4 0 6 -4 3
-8 -3 -5 -1 -37 5 -73 5 -35 12 -80 14 -99 12 -81 52 -166 102 -218 7 -7 13
-17 13 -22 0 -4 9 -10 20 -13 14 -4 18 -11 14 -31 -2 -14 0 -26 6 -26 5 0 10
-7 10 -15 0 -31 105 -206 161 -270 10 -11 35 -39 55 -63 59 -68 88 -85 147
-83 29 0 63 3 77 6 14 3 48 7 75 10 45 4 56 1 105 -33 30 -20 60 -41 66 -47
28 -25 55 -45 58 -45 3 0 62 -39 133 -86 70 -47 145 -94 165 -105 21 -11 38
-26 38 -34 0 -9 4 -23 9 -33 10 -18 33 -122 35 -157 1 -11 4 -24 7 -30 4 -5 5
-20 4 -33 -1 -12 2 -22 5 -22 4 0 7 -15 7 -33 0 -17 4 -40 8 -50 4 -10 8 -35
9 -57 0 -22 4 -40 8 -40 4 0 5 -8 3 -18 -1 -9 3 -34 10 -55 7 -20 9 -34 4 -31
-4 2 -4 -8 1 -23 8 -25 17 -70 24 -115 1 -10 5 -20 8 -24 4 -3 4 -12 2 -19 -3
-7 -1 -16 4 -19 6 -3 8 -15 5 -25 -3 -10 0 -22 5 -25 6 -3 8 -15 5 -26 -3 -13
0 -20 8 -20 11 0 11 -2 -1 -10 -12 -8 -12 -10 -1 -10 8 0 12 -3 9 -6 -3 -3 1
-29 8 -57 8 -29 17 -59 19 -68 6 -28 44 -107 55 -114 5 -3 7 -12 3 -20 -3 -8
0 -15 6 -15 6 0 11 -5 11 -11 0 -6 13 -29 28 -52 15 -23 34 -54 41 -69 8 -15
22 -37 33 -47 10 -11 18 -25 18 -31 0 -5 5 -10 10 -10 6 0 10 -4 10 -10 0 -12
123 -180 163 -221 9 -11 18 -22 19 -26 3 -10 27 -40 55 -70 13 -13 23 -27 23
-31 0 -4 15 -24 33 -44 17 -20 48 -56 67 -79 19 -24 51 -61 70 -83 19 -22 40
-47 45 -54 6 -7 22 -27 37 -43 16 -16 28 -31 28 -33 0 -3 15 -20 33 -38 17
-19 50 -56 72 -82 22 -26 51 -60 65 -76 14 -15 39 -43 57 -63 17 -19 29 -38
26 -41 -4 -3 1 -6 10 -6 9 0 17 -4 17 -8 0 -5 20 -29 44 -55 24 -26 42 -47 39
-47 -2 0 11 -15 29 -33 18 -19 55 -58 81 -88 55 -62 147 -165 195 -217 17 -20
32 -40 32 -44 0 -4 7 -8 15 -8 8 0 15 -4 15 -10 0 -5 24 -34 53 -63 158 -163
237 -249 237 -257 0 -6 4 -10 8 -10 5 0 17 -8 28 -18 42 -39 256 -106 469
-147 17 -3 41 -8 55 -10 64 -13 254 -17 720 -16 278 1 516 3 530 4 14 2 33 -1
43 -5 9 -5 17 -5 17 -1 0 4 78 8 173 9 182 1 327 10 442 27 22 4 60 9 85 12
49 7 81 12 120 20 14 3 39 8 55 11 107 19 342 98 450 152 68 33 169 94 173
104 2 4 8 8 13 8 8 0 219 158 245 184 6 6 30 27 54 46 85 69 127 107 260 237
74 73 139 133 144 133 5 0 7 2 4 5 -3 3 9 21 26 39 45 47 66 73 136 167 35 46
69 89 77 95 7 6 10 14 6 17 -3 4 -1 7 5 7 7 0 12 6 12 14 0 8 3 16 8 18 13 6
122 181 122 197 0 5 5 11 12 13 6 2 13 15 15 28 2 13 7 27 12 30 9 5 44 78 46
95 0 6 6 20 13 33 7 12 10 22 7 22 -3 0 0 10 7 23 7 12 13 29 14 37 0 8 4 22
7 30 4 8 9 29 12 45 7 35 12 58 16 65 1 3 3 10 4 15 1 6 5 22 9 36 4 14 9 34
11 45 2 10 4 19 5 19 3 0 12 40 15 66 7 62 26 82 90 95 123 24 359 103 311
104 -5 0 -4 6 1 13 9 11 22 61 29 112 1 11 5 40 9 65 4 25 7 51 7 58 1 6 4 12
8 12 3 0 5 12 5 28 -1 15 2 36 6 48 8 22 18 71 24 114 1 14 4 27 5 30 1 3 2 9
1 13 -1 4 4 17 10 29 9 16 8 19 -3 12 -11 -6 -11 -5 0 8 7 9 12 20 11 24 -1 5
0 11 1 14 5 13 11 50 16 94 3 27 9 57 14 66 6 11 5 21 -2 28 -8 8 -8 12 -2 12
6 0 11 6 11 13 1 20 12 100 18 127 3 14 7 39 9 55 2 17 6 44 9 60 14 82 28
172 30 193 1 12 4 22 7 22 4 0 6 10 5 22 -1 12 4 50 11 83 7 33 15 78 18 100
3 22 7 51 11 65 3 14 7 41 10 60 9 71 18 126 22 145 8 39 15 90 15 117 0 15 3
26 7 24 4 -3 7 7 7 22 1 30 11 117 14 117 1 0 4 14 6 30 2 17 6 48 10 70 3 22
7 55 7 72 1 18 4 33 8 33 3 0 5 10 6 23 0 12 4 45 8 72 4 28 8 59 10 70 1 11
3 20 4 20 1 0 4 23 7 50 3 28 7 66 9 85 2 19 4 35 5 35 2 0 4 14 5 30 1 17 6
57 10 90 5 33 8 75 8 93 -1 17 2 32 6 32 4 0 6 20 6 45 -1 25 1 45 5 45 3 0 6
19 7 43 1 43 6 92 17 182 4 28 8 70 11 95 2 25 4 45 5 45 4 0 21 161 25 235 2
30 4 55 5 55 1 0 2 81 4 181 1 99 6 187 11 194 5 8 5 15 -1 17 -11 4 -11 174
0 191 4 7 3 12 -2 12 -5 0 -8 21 -7 48 1 26 -2 57 -6 70 -5 14 -5 22 2 22 6 0
7 6 2 13 -4 6 -8 26 -10 42 -1 26 -6 58 -18 115 -2 8 -4 15 -6 15 -1 0 -3 9
-4 20 -4 22 -27 87 -35 95 -3 3 -6 13 -8 24 -2 10 -12 28 -23 39 -10 11 -19
23 -19 26 0 3 -17 17 -38 31 -20 14 -41 29 -47 33 -26 21 -195 127 -203 127
-5 0 -15 7 -22 15 -7 8 -16 12 -21 9 -5 -3 -9 0 -9 5 0 6 -6 11 -13 11 -20 0
-39 40 -43 94 -6 81 -13 128 -24 171 -6 22 -13 51 -15 65 -2 14 -7 36 -10 50
-8 30 -16 68 -20 95 -1 11 -5 27 -9 35 -3 8 -7 24 -9 35 -1 11 -6 26 -10 33
-5 6 -5 12 -1 12 3 0 0 8 -7 17 -12 15 -12 16 1 8 13 -8 13 -7 1 8 -7 9 -10
17 -5 17 4 0 3 5 -4 12 -7 7 -12 24 -12 39 0 15 -4 30 -9 34 -6 3 -9 13 -9 23
2 47 -93 232 -196 382 -17 25 -30 48 -28 53 1 4 -2 7 -6 7 -5 0 -18 19 -29 43
-35 71 -63 136 -63 146 0 5 -7 14 -15 21 -8 6 -14 15 -13 18 1 9 -13 44 -24
57 -14 17 -75 110 -79 120 -2 6 -26 44 -53 85 -27 41 -65 100 -85 130 -19 30
-34 57 -32 59 1 2 -1 7 -6 10 -13 9 -73 89 -73 97 0 6 -30 44 -85 107 -14 15
-22 27 -19 27 3 0 -11 15 -30 34 -20 18 -36 36 -36 39 0 15 -375 379 -461 447
-17 14 -37 30 -43 35 -6 6 -38 30 -71 54 -33 25 -64 50 -70 56 -5 7 -13 13
-18 13 -8 2 -59 33 -67 42 -10 10 -98 70 -104 70 -3 0 -24 13 -48 29 -118 79
-402 211 -618 286 -130 45 -324 97 -348 93 -9 -1 -23 1 -30 5 -13 9 -18 10
-127 27 -84 14 -116 18 -175 25 -25 3 -58 7 -75 9 -16 3 -79 7 -140 11 -60 4
-112 9 -114 10 -1 2 -13 0 -26 -5 -13 -5 -26 -6 -30 -2 -5 6 -253 11 -258 5z"/>
</g>
</svg>
